# AST/ASF file generated using VICON BodyLanguage
# -----------------------------------------------
:version 1.10
:name VICON
:units
  mass 1.0
  length 0.45
  angle deg
:documentation
   .ast/.asf automatically generated from VICON data using
   VICON BodyBuilder and BodyLanguage model FoxedUp or BRILLIANT.MOD
:root
   order TX TY TZ RX RY RZ
   axis XYZ
   position 0 0 0  
   orientation 0 0 0 
:bonedata
  begin
     id 1 
     name lhipjoint
     direction 0.611823 -0.767273 0.19226 
     length 2.47422 
     axis 0 0 0  XYZ
  end
  begin
     id 2 
     name lfemur
     direction 0.34202 -0.939693 0  
     length 7.40835  
     axis 0 0 20  XYZ
    dof rx ry rz
    limits (-160.0 20.0)
           (-70.0 70.0)
           (-60.0 70.0)
  end
  begin
     id 3 
     name ltibia
     direction 0.34202 -0.939693 0   
     length 8.03679   
     axis 0 0 20   XYZ
    dof rx
    limits (-10.0 170.0)
  end
  begin
     id 4 
     name lfoot
     direction 0.0883598 -0.242766 0.966052   
     length 2.06694   
     axis -90 7.62852e-016 20   XYZ
    dof rx rz
    limits (-45.0 90.0)
           (-70.0 20.0)
  end
  begin
     id 5 
     name ltoes
     direction 1.53617e-011 -4.21699e-011 1   
     length 1.03711   
     axis -90 7.62852e-016 20   XYZ
    dof rx
    limits (-90.0 20.0)
  end
  begin
     id 6 
     name rhipjoint
     direction -0.590066 -0.783143 0.196236   
     length 2.42408  
     axis 0 0 0  XYZ 
  end
  begin
     id 7 
     name rfemur
     direction -0.34202 -0.939693 0   
     length 7.88987   
     axis 0 0 -20   XYZ
    dof rx ry rz
    limits (-160.0 20.0)
           (-70.0 70.0)
           (-70.0 60.0)
  end
  begin
     id 8 
     name rtibia
     direction -0.34202 -0.939693 0   
     length 7.87584   
     axis 0 0 -20   XYZ
    dof rx
    limits (-10.0 170.0)
 end
 begin
     id 9 
     name rfoot
     direction -0.130476 -0.358481 0.924374   
     length 2.21745  
     axis -90 -7.62852e-016 -20   XYZ
    dof rx rz
    limits (-45.0 90.0)
           (-20.0 70.0)
  end
  begin
     id 10 
     name rtoes
     direction 8.20695e-005 8.89091e-005 1   
     length 1.09536   
     axis -90 -7.62852e-016 -20   XYZ
    dof rx
    limits (-90.0 20.0)
  end
  begin
     id 11 
     name lowerback
     direction 0.00981224 0.999875 -0.0124197   
     length 1.94808   
     axis 0 0 0   XYZ
    dof rx ry rz
    limits (-20.0 45.0)
           (-30.0 30.0)
           (-30.0 30.0)
  end
  begin
     id 12 
     name upperback
     direction 0.038911 0.999194 0.00981686   
     length 1.94415   
     axis 0 0 0   XYZ
    dof rx ry rz
    limits (-20.0 45.0)
           (-30.0 30.0)
           (-30.0 30.0)
  end
  begin
     id 13 
     name thorax
     direction 0.0330692 0.999334 0.0154389   
     length 1.94117   
     axis 0 0 0   XYZ
    dof rx ry rz
    limits (-20.0 45.0)
           (-30.0 30.0)
           (-30.0 30.0)
  end
  begin
     id 14 
     name lowerneck
     direction -0.0374305 0.99415 0.10132   
     length 1.87291   
     axis 0 0 0   XYZ
    dof rx ry rz
    limits (-20.0 45.0)
           (-30.0 30.0)
           (-30.0 30.0)
  end
  begin
     id 15 
     name upperneck
     direction 0.0120692 0.985979 -0.166431   
     length 1.89248   
     axis 0 0 0   XYZ
    dof rx ry rz
    limits (-20.0 45.0)
           (-30.0 30.0)
           (-30.0 30.0)
  end
  begin
     id 16
     name head
     direction 0.00629908 0.997708 -0.06737  
     length 1.90559  
     axis 0 0 0   XYZ
    dof rx ry rz
    limits (-20.0 45.0)
           (-30.0 30.0)
           (-30.0 30.0)
  end
  begin
     id 17 
     name lclavicle
     direction 0.961536 0.27308 -0.0295863  
     length 3.52757  
     axis 0 0 0   XYZ
    dof ry rz
    limits (-20.0 10.0)
           (0.0 20.0)
  end
  begin
     id 18 
     name lhumerus
     direction 1 -4.48969e-011 2.61153e-029   
     length 5.14845   
     axis 180 -30 -90   XYZ
    dof rx ry rz
    limits (-60.0 90.0)
           (-90.0 90.0)
           (-90.0 90.0)
  end
  begin
     id 19
     name lradius
     direction 1 -4.4896e-011 -3.37549e-027   
     length 3.43674   
     axis 180 -30 -90   XYZ
    dof rx
    limits (-10.0 170.0)
  end
  begin
     id 20
     name lwrist
     direction 1 -4.48969e-011 2.56952e-028   
     length 1.71837   
     axis -5.12785e-016 90 90   XYZ
    dof ry
    limits (-180.0 0.0)
 end
  begin
     id 21 
     name lhand
     direction 1 -4.49094e-011 5.13905e-028   
     length 0.588709   
     axis -3.27915e-016 90 90   XYZ
    dof rx rz
    limits (-90.0 90.0)
           (-45.0 45.0)
  end
  begin
     id 22 
     name lfingers
     direction 1 -4.48821e-011 1.02781e-027   
     length 0.474633   
     axis -6.5583e-016 90 90   XYZ
    dof rx
    limits (0.0 90.0)
  end
  begin
     id 23
     name lthumb
     direction 0.707107 -6.34922e-011 0.707107   
     length 0.68148   
     axis -90 45 2.85299e-015   XYZ
    dof rx rz
    limits (-45.0 45.0)
           (-45.0 45.0)
  end
  begin
     id 24 
     name rclavicle
     direction -0.940964 0.333844 -0.0559866   
     length 3.55948  
     axis 0 0 0   XYZ 
    dof ry rz
    limits (-10.0 20.0)
           (-20.0 0.0)
  end
  begin
     id 25 
     name rhumerus
     direction -1 -4.48973e-011 3.15259e-027  
     length 5.42185   
     axis 180 30 90   XYZ
    dof rx ry rz
    limits (-90.0 60.0)
           (-90.0 90.0)
           (-90.0 90.0)
  end
  begin
     id 26 
     name rradius
     direction -1 -4.48954e-011 -2.56271e-027   
     length 3.51317   
     axis 180 30 90   XYZ
    dof rx
    limits (-10.0 170.0)
  end
  begin
     id 27 
     name rwrist
     direction -1 -4.48943e-011 2.56952e-028   
     length 1.75658   
     axis -5.12785e-016 -90 -90   XYZ
    dof ry
    limits (-180.0 0.0)
  end
  begin
     id 28
     name rhand
     direction -1 -4.4912e-011 5.13905e-028   
     length 0.663187   
     axis -3.27915e-016 -90 -90   XYZ
    dof rx rz
    limits (-90.0 90.0)
           (-45.0 45.0)
  end
  begin
     id 29
     name rfingers
     direction -1 -4.48914e-011 1.02781e-027   
     length 0.534679   
     axis -6.5583e-016 -90 -90   XYZ
    dof rx
    limits (0.0 90.0)
  end
  begin
     id 30
     name rthumb
     direction -0.707107 -6.35033e-011 0.707107   
     length 0.767695   
     axis -90 -45 -2.85299e-015   XYZ
    dof rx rz
    limits (-45.0 45.0)
           (-45.0 45.0)
  end
:hierarchy
  begin
    root lhipjoint rhipjoint lowerback
    lhipjoint lfemur
    lfemur ltibia
    ltibia lfoot
    lfoot ltoes
    rhipjoint rfemur
    rfemur rtibia
    rtibia rfoot
    rfoot rtoes
    lowerback upperback
    upperback thorax
    thorax lowerneck lclavicle rclavicle
    lowerneck upperneck
    upperneck head
    lclavicle lhumerus
    lhumerus lradius
    lradius lwrist
    lwrist lhand lthumb
    lhand lfingers
    rclavicle rhumerus
    rhumerus rradius
    rradius rwrist
    rwrist rhand rthumb
    rhand rfingers
  end

#!OML:ASF F:\VICON\USERDATA\INSTALL\Justin_a\Justin_a.ASF
:FULLY-SPECIFIED
:DEGREES
4370
root -13.2125 17.5948 -1.23335 13.5532 46.2498 -2.70358
lowerback -0.806342 2.57355 -4.29628
upperback 0.753193 3.48165 0.830649
thorax 0.91869 1.70651 3.30444
lowerneck -6.19942 -10.3759 -9.82136
upperneck 36.5965 -13.3722 2.86758
head 14.5856 -6.48324 0.995861
rclavicle -3.2902e-014 -6.41081e-015
rhumerus -38.5328 -6.22637 -82.0766
rradius 39.17
rwrist -11.7142
rhand -28.3416 14.3817
rfingers 7.12502
rthumb -1.71581 -15.5911
lclavicle -3.2902e-014 -6.41081e-015
lhumerus -40.4197 14.3041 78.1876
lradius 46.5707
lwrist 15.4721
lhand -21.5185 26.939
lfingers 7.12502
lthumb 4.87368 56.863
rfemur -14.5119 -12.0863 29.0696
rtibia 36.3236
rfoot -29.8992 -16.4576
rtoes -8.2218
lfemur -41.1602 3.6988 -24.9332
ltibia 35.9687
lfoot -12.6485 0.614896
ltoes 0.592218
4371
root -13.2969 17.5699 -1.30924 13.6357 45.4008 -2.83976
lowerback -0.864968 2.71131 -4.23203
upperback 0.760967 3.6671 0.848946
thorax 0.945902 1.79888 3.29163
lowerneck -6.22171 -10.3556 -9.83448
upperneck 36.3061 -13.3578 2.90609
head 14.4556 -6.48292 1.01759
rclavicle 6.53753e-014 3.60297e-015
rhumerus -38.1948 -6.0764 -82.0574
rradius 39.2539
rwrist -11.2136
rhand -27.9104 13.415
rfingers 7.12502
rthumb -1.29934 -16.5608
lclavicle 6.53753e-014 3.60297e-015
lhumerus -40.6162 14.7857 78.2448
lradius 46.8599
lwrist 15.3001
lhand -21.2102 26.5579
lfingers 7.12502
lthumb 5.17138 56.4748
rfemur -14.6948 -11.7742 29.1298
rtibia 35.6632
rfoot -30.5504 -16.6399
rtoes -8.51458
lfemur -41.9343 3.91604 -24.8103
ltibia 36.3539
lfoot -12.3722 1.20874
ltoes 0.757337
4372
root -13.3782 17.5488 -1.38383 13.5751 44.5793 -3.03466
lowerback -0.831185 2.76797 -4.15651
upperback 0.818415 3.74078 0.889727
thorax 0.981618 1.83438 3.29185
lowerneck -6.4149 -10.2519 -9.70379
upperneck 36.1222 -13.2112 2.85764
head 14.38 -6.41315 0.992747
rclavicle -3.58309e-014 3.95085e-015
rhumerus -37.7704 -5.87884 -82.1325
rradius 39.2297
rwrist -10.6624
rhand -27.5814 13.1142
rfingers 7.12502
rthumb -0.981611 -16.8633
lclavicle -3.58309e-014 3.95085e-015
lhumerus -40.7778 15.4064 78.2626
lradius 47.148
lwrist 15.367
lhand -21.0551 26.722
lfingers 7.12502
lthumb 5.32119 56.6352
rfemur -14.7722 -11.47 29.2139
rtibia 35.0187
rfoot -31.1596 -16.7683
rtoes -8.80108
lfemur -42.5479 4.00465 -24.5794
ltibia 36.679
lfoot -12.0501 1.82999
ltoes 2.93019
4373
root -13.4548 17.5309 -1.45937 13.5731 43.7743 -3.12749
lowerback -0.705614 2.84284 -3.98749
upperback 0.819311 3.83355 0.812126
thorax 0.920173 1.88361 3.11123
lowerneck -6.50715 -10.1635 -9.46345
upperneck 35.9627 -13.1235 2.83048
head 14.2901 -6.35346 0.955625
rclavicle 4.19467e-014 -7.6734e-015
rhumerus -37.556 -5.7898 -82.325
rradius 39.309
rwrist -10.4288
rhand -27.4028 13.286
rfingers 7.12502
rthumb -0.809149 -16.6923
lclavicle 4.19467e-014 -7.6734e-015
lhumerus -40.9647 15.7628 78.2118
lradius 47.4641
lwrist 15.5498
lhand -20.6779 26.8932
lfingers 7.12502
lthumb 5.68535 56.7969
rfemur -14.8534 -11.0829 29.2011
rtibia 34.4064
rfoot -31.8855 -16.7424
rtoes -8.39147
lfemur -43.0877 4.07232 -24.4418
ltibia 36.8986
lfoot -11.6509 2.51777
ltoes 5.86227
4374
root -13.5298 17.5189 -1.53205 13.5441 42.9962 -3.31788
lowerback -0.489327 2.95418 -3.70696
upperback 0.716453 3.96906 0.706103
thorax 0.708191 1.95966 2.83038
lowerneck -6.46622 -10.0979 -9.31095
upperneck 35.8135 -13.1079 2.94226
head 14.204 -6.32113 0.983101
rclavicle -5.66536e-015 8.44835e-015
rhumerus -37.4422 -5.69526 -82.5777
rradius 39.3458
rwrist -10.3814
rhand -27.3849 12.8139
rfingers 7.12502
rthumb -0.791827 -17.1644
lclavicle -5.66536e-015 8.44835e-015
lhumerus -41.2961 15.8812 78.1391
lradius 47.7912
lwrist 15.7347
lhand -20.8854 26.9894
lfingers 7.12502
lthumb 5.48497 56.8984
rfemur -14.9926 -10.4498 29.2917
rtibia 33.7905
rfoot -32.5463 -16.7057
rtoes -6.99107
lfemur -43.6047 4.19303 -24.226
ltibia 37.0018
lfoot -11.2152 3.02662
ltoes 7.61074
4375
root -13.6032 17.5116 -1.59872 13.68 42.2022 -3.34503
lowerback -0.578552 3.0378 -3.73775
upperback 0.721266 4.08456 0.687135
thorax 0.753619 2.0162 2.83358
lowerneck -6.42727 -10.0507 -9.22507
upperneck 35.5984 -13.0765 2.97811
head 14.0872 -6.30089 0.993687
rclavicle 1.30018e-014 -1.37161e-014
rhumerus -37.0749 -5.64099 -82.6903
rradius 39.2633
rwrist -10.4031
rhand -27.5098 12.7591
rfingers 7.12502
rthumb -0.912485 -17.2186
lclavicle 1.30018e-014 -1.37161e-014
lhumerus -41.4317 16.3206 78.2664
lradius 47.944
lwrist 15.8737
lhand -21.2532 27.4208
lfingers 7.12502
lthumb 5.12985 57.3388
rfemur -15.218 -9.74919 29.2842
rtibia 33.2324
rfoot -32.985 -16.794
rtoes -5.5822
lfemur -44.078 4.24924 -24.1144
ltibia 36.9877
lfoot -10.6831 3.55623
ltoes 7.98231
4376
root -13.6766 17.5058 -1.66542 13.5997 41.558 -3.39426
lowerback -0.492536 3.02408 -3.79158
upperback 0.815808 4.06439 0.76875
thorax 0.794577 2.00332 2.94544
lowerneck -6.54595 -9.96831 -9.26051
upperneck 35.4756 -12.9541 2.98888
head 14.0502 -6.25495 1.01722
rclavicle 2.1798e-014 9.0944e-015
rhumerus -36.7385 -5.5346 -82.6969
rradius 39.3502
rwrist -10.3062
rhand -27.5066 12.6736
rfingers 7.12502
rthumb -0.909361 -17.3043
lclavicle 2.1798e-014 9.0944e-015
lhumerus -41.4142 17.1559 78.4085
lradius 47.8318
lwrist 15.7374
lhand -21.3276 27.702
lfingers 7.12502
lthumb 5.05807 57.6216
rfemur -15.2566 -9.30763 29.3165
rtibia 32.7595
rfoot -33.4014 -17.0882
rtoes -4.71587
lfemur -44.2981 4.1967 -23.919
ltibia 36.899
lfoot -10.1076 4.13148
ltoes 8.24333
4377
root -13.7464 17.5015 -1.73281 13.4378 40.8812 -3.44357
lowerback -0.214813 3.03853 -3.73889
upperback 0.864698 4.07267 0.816781
thorax 0.688746 2.00925 2.95043
lowerneck -6.61044 -9.86596 -9.3377
upperneck 35.3928 -12.8132 3.0471
head 14.0267 -6.20024 1.07177
rclavicle 4.57049e-014 -1.6847e-014
rhumerus -36.5332 -5.354 -82.729
rradius 39.4556
rwrist -10.2095
rhand -27.5759 12.7583
rfingers 7.12502
rthumb -0.976269 -17.2193
lclavicle 4.57049e-014 -1.6847e-014
lhumerus -41.5371 17.6834 78.5187
lradius 47.7046
lwrist 15.7499
lhand -21.0706 27.3799
lfingers 7.12502
lthumb 5.30616 57.2935
rfemur -15.2386 -8.85446 29.3431
rtibia 32.4087
rfoot -33.5966 -17.7711
rtoes -5.45851
lfemur -44.372 4.21584 -23.7678
ltibia 36.7484
lfoot -9.47006 4.70825
ltoes 7.86649
4378
root -13.8161 17.4976 -1.80257 13.338 40.276 -3.54665
lowerback 0.0407888 2.99688 -3.62624
upperback 0.831821 4.00597 0.885446
thorax 0.519713 1.98054 2.94208
lowerneck -6.60151 -9.72232 -9.37987
upperneck 35.3105 -12.6041 3.0488
head 13.9731 -6.12006 1.1137
rclavicle -3.0779e-014 -3.08147e-014
rhumerus -36.368 -4.99232 -82.8495
rradius 39.4484
rwrist -10.2038
rhand -28.2197 13.1358
rfingers 7.12502
rthumb -1.59811 -16.838
lclavicle -3.0779e-014 -3.08147e-014
lhumerus -41.8967 18.0007 78.5743
lradius 47.6939
lwrist 15.9825
lhand -20.7063 27.1077
lfingers 7.12502
lthumb 5.65789 57.0122
rfemur -15.3565 -8.31162 29.4175
rtibia 32.1992
rfoot -33.7049 -18.1991
rtoes -5.92858
lfemur -44.5184 4.11339 -23.5148
ltibia 36.5429
lfoot -8.87275 5.22288
ltoes 7.99041
